<svg version="1.1" xmlns="http://www.w3.org/2000/svg" xmlns:xlink="http://www.w3.org/1999/xlink" viewBox="0 0 172 172">
    <defs>
        <radialGradient cx="86" cy="84.65625" r="85.33081" gradientUnits="userSpaceOnUse" id="color-1">
            <stop offset="0" stop-color="#c5f1ff"></stop>
            <stop offset="0.35" stop-color="#cdf3ff"></stop>
            <stop offset="0.907" stop-color="#e4faff"></stop>
            <stop offset="1" stop-color="#e9fbff"></stop>
        </radialGradient>
        <linearGradient x1="86" y1="178.89881" x2="86" y2="44.52381" gradientUnits="userSpaceOnUse" id="color-2">
            <stop offset="0" stop-color="#155cde"></stop>
            <stop offset="0.278" stop-color="#1f7fe5"></stop>
            <stop offset="0.569" stop-color="#279ceb"></stop>
            <stop offset="0.82" stop-color="#2cafef"></stop>
            <stop offset="1" stop-color="#2eb5f0"></stop>
        </linearGradient>
        <linearGradient x1="38.96875" y1="64.5" x2="38.96875" y2="24.1875" gradientUnits="userSpaceOnUse" id="color-3">
            <stop offset="0" stop-color="#4cbcf1"></stop>
            <stop offset="0.989" stop-color="#4dc0f2"></stop>
        </linearGradient>
        <linearGradient x1="115.5625" y1="110.1875" x2="115.5625" y2="67.1875" gradientUnits="userSpaceOnUse"
            id="color-4">
            <stop offset="0" stop-color="#bde0f9"></stop>
            <stop offset="0.053" stop-color="#bde1f9"></stop>
            <stop offset="1" stop-color="#bfe7fa"></stop>
        </linearGradient>
        <linearGradient x1="56.4375" y1="110.1875" x2="56.4375" y2="71.17306" gradientUnits="userSpaceOnUse"
            id="color-5">
            <stop offset="0" stop-color="#bde0f9"></stop>
            <stop offset="0.053" stop-color="#bde1f9"></stop>
            <stop offset="1" stop-color="#bfe7fa"></stop>
        </linearGradient>
    </defs>
    <g fill="none" fill-rule="nonzero" stroke="none" stroke-width="1" stroke-linecap="butt" stroke-linejoin="miter"
        stroke-miterlimit="10" stroke-dasharray="" stroke-dashoffset="0" font-family="none" font-weight="none"
        font-size="none" text-anchor="none" style="mix-blend-mode: normal">
        <path d="M0,172v-172h172v172z" fill="none"></path>
        <g>
            <path
                d="M162.59375,86c5.8265,0 10.45975,-5.36962 9.19662,-11.40306c-0.91912,-4.39406 -5.01487,-7.40944 -9.50569,-7.40944h-46.72219v-18.8125h38.66237c4.48812,0 8.58656,-3.01537 9.50569,-7.40944c1.26044,-6.03613 -3.37281,-11.40306 -9.19931,-11.40306h-30.90625c-2.96969,0 -5.375,-2.40531 -5.375,-5.375v0c0,-2.96969 2.40531,-5.375 5.375,-5.375h11.78469c4.48812,0 8.58656,-3.01537 9.50569,-7.40944c1.26313,-6.03344 -3.37012,-11.40306 -9.19662,-11.40306h-107.19094c-4.49081,0 -8.58656,3.01537 -9.50569,7.40944c-1.26312,6.03344 3.37013,11.40306 9.19663,11.40306h6.71875c2.96969,0 5.375,2.40531 5.375,5.375v0c0,2.96969 -2.40531,5.375 -5.375,5.375h-17.15969c-4.48812,0 -8.58656,3.01537 -9.50569,7.40944c-1.26313,6.03344 3.37012,11.40306 9.19662,11.40306h41.65625v40.3125h-49.41237c-4.48812,0 -8.58656,3.01538 -9.50569,7.40944c-1.26044,6.03344 3.37281,11.40306 9.19931,11.40306h1.34375c2.96969,0 5.375,2.40531 5.375,5.375v0c0,2.96969 -2.40531,5.375 -5.375,5.375h-1.03469c-4.48812,0 -8.58656,3.01538 -9.50569,7.40944c-1.26313,6.03344 3.37012,11.40306 9.19662,11.40306h56.74656c3.53944,0 6.40969,2.87025 6.40969,6.40969v0.61544c0,3.54212 -2.87025,6.41237 -6.40969,6.41237h-13.4375c-4.48812,0 -8.58656,3.01538 -9.50569,7.40944c-1.26312,6.03344 3.37013,11.40306 9.19663,11.40306h104.50344c4.48812,0 8.58656,-3.01538 9.50569,-7.40944c1.26313,-6.03344 -3.37012,-11.40306 -9.19662,-11.40306h-8.37156c-3.53944,0 -6.40969,-2.87025 -6.40969,-6.40969v-0.61544c0,-3.54212 2.87025,-6.41237 6.40969,-6.41237v0c4.48812,0 8.58656,-3.01538 9.50569,-7.40944c1.26313,-6.03344 -3.37012,-11.40306 -9.19662,-11.40306h-33.59375v-32.25z"
                fill="url(#color-1)"></path>
            <path
                d="M139.75,24.1875h-107.5c-7.42019,0 -13.4375,6.01731 -13.4375,13.4375v80.625v33.19063c0,3.9345 3.18737,7.12187 7.12187,7.12187h0.01881c2.26825,0 4.40213,-1.08038 5.74319,-2.91056l13.54769,-18.47387c2.53162,-3.45075 6.55481,-5.49056 10.836,-5.49056h83.66994c7.42019,0 13.4375,-6.01731 13.4375,-13.4375v-80.625c0,-7.42019 -6.01731,-13.4375 -13.4375,-13.4375z"
                fill="url(#color-2)"></path>
            <path
                d="M41.65625,64.5h-22.84375v-26.875c0,-7.42019 6.01731,-13.4375 13.4375,-13.4375h20.15625c3.71144,0 6.71875,3.00731 6.71875,6.71875v0c0,3.71144 -3.00731,6.71875 -6.71875,6.71875h-13.4375c-3.71144,0 -6.71875,3.00731 -6.71875,6.71875v0c0,3.71144 3.00731,6.71875 6.71875,6.71875h2.6875c3.71144,0 6.71875,3.00731 6.71875,6.71875v0c0,3.71144 -3.00731,6.71875 -6.71875,6.71875z"
                fill="url(#color-3)"></path>
            <path
                d="M80.625,48.375h10.75c2.96969,0 5.375,2.40531 5.375,5.375v51.0625c0,2.96969 -2.40531,5.375 -5.375,5.375h-10.75c-2.96969,0 -5.375,-2.40531 -5.375,-5.375v-51.0625c0,-2.96969 2.40531,-5.375 5.375,-5.375z"
                fill="#ffffff"></path>
            <path
                d="M110.1875,67.1875h10.75c2.96969,0 5.375,2.40531 5.375,5.375v32.25c0,2.96969 -2.40531,5.375 -5.375,5.375h-10.75c-2.96969,0 -5.375,-2.40531 -5.375,-5.375v-32.25c0,-2.96969 2.40531,-5.375 5.375,-5.375z"
                fill="url(#color-4)"></path>
            <path
                d="M51.0625,86h10.75c2.96969,0 5.375,2.40531 5.375,5.375v13.4375c0,2.96969 -2.40531,5.375 -5.375,5.375h-10.75c-2.96969,0 -5.375,-2.40531 -5.375,-5.375v-13.4375c0,-2.96969 2.40531,-5.375 5.375,-5.375z"
                fill="url(#color-5)"></path>
        </g>
    </g>
</svg>